<?xml version="1.0" standalone="no"?>
<!DOCTYPE svg PUBLIC "-//W3C//DTD SVG 20010904//EN"
 "http://www.w3.org/TR/2001/REC-SVG-20010904/DTD/svg10.dtd">
<svg version="1.0" xmlns="http://www.w3.org/2000/svg"
 width="450.000000pt" height="450.000000pt" viewBox="0 0 450.000000 450.000000"
 preserveAspectRatio="xMidYMid meet">
<metadata>
Created by potrace 1.11, written by Peter Selinger 2001-2013
</metadata>
<g transform="translate(0.000000,450.000000) scale(0.100000,-0.100000)"
fill="#000000" stroke="none">
<path d="M2255 3588 c-22 -5 -74 -9 -115 -8 -177 2 -412 -134 -556 -322 -63
-81 -120 -201 -152 -315 -25 -92 -26 -112 -28 -328 -1 -214 -2 -232 -22 -265
-58 -98 -112 -287 -112 -392 1 -114 87 -299 248 -527 116 -165 115 -165 249
-163 182 1 373 40 388 79 3 10 -4 27 -18 42 -14 14 -32 49 -40 76 -33 106 -68
331 -51 324 11 -5 140 -80 209 -122 42 -25 61 -31 115 -31 36 -1 78 1 95 4 29
5 30 3 41 -49 7 -30 18 -60 26 -67 17 -16 198 -34 354 -34 106 0 125 3 145 19
24 20 24 20 7 51 -35 63 -16 238 33 300 57 71 77 182 59 322 -13 109 -44 213
-76 255 -46 61 -55 106 -64 318 -13 298 -42 391 -156 492 -90 80 -364 284
-421 315 -57 30 -104 38 -158 26z m211 -134 c269 -188 384 -292 414 -371 35
-95 41 -133 50 -338 9 -219 19 -268 69 -337 45 -63 73 -179 74 -308 1 -114
-13 -163 -58 -210 -33 -35 -58 -157 -53 -263 l3 -80 -160 6 c-224 9 -232 11
-240 56 -3 20 -8 43 -10 51 -3 9 9 24 29 38 20 14 48 50 69 90 19 37 51 93 70
125 46 75 112 226 132 302 25 95 30 229 11 303 -9 36 -16 103 -16 156 0 162
-46 295 -138 398 -47 52 -191 158 -215 158 -7 0 -30 -33 -50 -73 -63 -128
-174 -222 -330 -279 -109 -39 -114 -43 -139 -91 -29 -56 -28 -165 1 -307 12
-57 25 -133 28 -167 5 -57 3 -66 -21 -102 -26 -36 -27 -45 -27 -151 1 -234 50
-572 97 -662 14 -27 13 -29 -8 -37 -39 -14 -194 -33 -285 -34 l-86 -1 -35 40
c-104 119 -264 393 -297 509 -31 104 3 276 87 437 l32 63 1 230 c1 205 3 239
23 315 75 280 274 497 536 581 54 17 82 20 130 15 34 -3 68 -1 76 4 8 5 40 10
71 10 54 0 61 -3 165 -76z m117 -348 c100 -71 164 -170 193 -293 18 -79 29
-64 -104 -144 -68 -41 -83 -55 -80 -72 3 -18 9 -22 38 -19 l34 3 -21 -23 c-54
-59 -79 -150 -36 -134 9 4 43 9 76 13 36 4 71 15 92 29 41 27 45 21 45 -69 0
-87 -32 -208 -86 -329 -56 -124 -60 -131 -84 -118 -23 12 -77 13 -84 1 -3 -4
-16 -6 -28 -4 -24 5 -193 -48 -211 -66 -16 -16 10 -66 56 -107 39 -36 41 -36
104 -31 l65 5 -31 -19 c-59 -36 -158 -49 -197 -26 -12 6 -50 27 -85 46 -106
56 -206 128 -213 153 -3 13 -6 74 -6 136 0 104 2 116 25 150 20 29 25 49 25
98 0 59 1 61 25 59 13 -2 41 -9 61 -15 20 -7 55 -10 78 -8 40 5 151 51 161 68
9 14 -47 72 -83 87 -55 23 -108 9 -177 -48 -33 -27 -63 -49 -66 -49 -11 0 -20
63 -10 73 19 19 118 39 218 44 95 5 103 7 129 34 23 24 25 31 14 44 -10 12
-37 15 -133 15 l-121 0 -57 -40 c-32 -22 -62 -40 -67 -40 -5 0 -14 36 -20 79
-10 84 -1 166 21 187 6 7 48 26 92 43 44 17 109 48 144 68 74 44 183 155 213
219 12 24 24 44 26 44 2 0 31 -20 65 -44z m207 -496 c0 -5 -9 -10 -20 -10 -11
0 -20 5 -20 10 0 6 9 10 20 10 11 0 20 -4 20 -10z m-21 -64 c10 -11 7 -19 -11
-36 l-23 -21 -6 28 c-3 15 -4 31 -2 36 7 12 30 8 42 -7z m-89 -41 c-7 -9 -15
-13 -17 -11 -7 7 7 26 19 26 6 0 6 -6 -2 -15z m-350 -94 c0 -8 -23 -21 -36
-21 -2 0 -4 11 -4 25 0 23 2 24 20 15 11 -6 20 -15 20 -19z m-90 -1 c0 -11 -6
-20 -14 -20 -18 0 -29 16 -21 30 11 18 35 11 35 -10z m370 -500 c0 -5 -9 -14
-20 -20 -22 -12 -27 -1 -8 18 14 14 28 16 28 2z m-71 -13 c8 -11 3 -16 -24
-24 -19 -6 -45 -9 -57 -5 -20 5 -18 7 17 23 50 22 50 22 64 6z m-125 -58 c31
-18 45 -20 98 -14 l63 7 -20 -21 c-12 -12 -39 -23 -65 -27 -37 -5 -50 -2 -73
16 -25 20 -54 60 -43 60 3 0 21 -9 40 -21z"/>
<path d="M2406 2148 c-42 -59 -1 -139 71 -138 21 1 53 -2 71 -6 26 -5 40 -2
62 15 16 11 34 21 39 21 17 0 32 39 29 73 -2 24 -8 32 -23 32 -14 0 -20 -7
-20 -21 0 -12 -15 -33 -32 -48 -28 -23 -38 -26 -65 -19 -18 4 -46 8 -63 8 -27
0 -30 3 -28 30 0 17 3 39 5 50 5 28 -27 31 -46 3z"/>
</g>
</svg>
