<?xml version="1.0" standalone="no"?>
<!DOCTYPE svg PUBLIC "-//W3C//DTD SVG 20010904//EN"
 "http://www.w3.org/TR/2001/REC-SVG-20010904/DTD/svg10.dtd">
<svg version="1.0" xmlns="http://www.w3.org/2000/svg"
 width="245.000000pt" height="245.000000pt" viewBox="0 0 245.000000 245.000000"
 preserveAspectRatio="xMidYMid meet">
<metadata>
Created by potrace 1.11, written by Peter Selinger 2001-2013
</metadata>
<g transform="translate(0.000000,245.000000) scale(0.100000,-0.100000)"
fill="#000000" stroke="none">
<path d="M0 1225 l0 -1225 1225 0 1225 0 0 1225 0 1225 -1225 0 -1225 0 0
-1225z m1451 1132 c58 -29 269 -184 389 -285 156 -130 187 -211 200 -527 9
-206 17 -255 49 -296 55 -71 92 -215 93 -358 0 -117 -12 -163 -56 -230 -55
-81 -78 -250 -43 -305 20 -30 13 -54 -20 -67 -50 -19 -432 -1 -475 22 -11 6
-22 32 -30 69 l-12 60 -36 -7 c-88 -19 -140 -9 -240 47 -52 29 -114 65 -136
81 -23 15 -44 26 -46 24 -6 -6 16 -153 36 -250 19 -89 32 -124 58 -152 47 -51
-3 -84 -163 -107 -119 -18 -285 -21 -322 -7 -30 12 -157 184 -245 331 -74 125
-118 233 -127 315 -12 104 25 253 96 396 l38 76 -6 161 c-12 318 50 541 202
725 144 175 392 309 544 294 31 -3 65 -1 76 3 41 17 130 11 176 -13z"/>
<path d="M1310 2317 c-19 -5 -66 -9 -103 -8 -117 3 -242 -45 -375 -146 -137
-104 -242 -265 -294 -448 -20 -72 -22 -104 -23 -315 l-2 -235 -35 -70 c-98
-195 -120 -354 -66 -485 50 -122 198 -363 279 -454 l37 -41 101 2 c83 1 278
26 288 36 1 2 -6 26 -17 54 -48 126 -94 474 -88 662 3 97 6 112 26 133 30 33
29 99 -3 253 -29 134 -35 242 -17 296 18 52 57 82 146 114 95 34 211 109 265
172 35 42 79 117 95 166 9 28 34 20 110 -34 97 -70 141 -114 181 -179 54 -90
76 -170 82 -300 2 -63 12 -148 20 -189 37 -177 -22 -395 -176 -650 -28 -46
-51 -90 -51 -97 0 -7 -20 -30 -45 -52 l-45 -40 10 -50 c14 -61 8 -60 235 -68
l171 -7 -4 76 c-6 106 21 231 58 273 43 49 55 97 54 209 -2 118 -32 245 -73
303 -54 75 -71 159 -71 355 0 226 -38 346 -136 437 -72 66 -272 219 -369 282
-77 51 -113 60 -165 45z"/>
<path d="M1542 1896 c-71 -134 -235 -253 -429 -311 -24 -8 -46 -58 -49 -108
-2 -63 15 -177 28 -177 5 0 32 16 61 35 l52 35 132 0 c122 0 133 -1 133 -18 0
-10 -10 -28 -23 -40 -20 -19 -35 -22 -103 -22 -70 0 -225 -28 -241 -43 -8 -9
6 -77 16 -77 5 0 37 22 71 50 59 47 66 50 121 50 51 0 63 -4 94 -31 50 -44 46
-63 -20 -93 -74 -34 -111 -40 -165 -26 -100 26 -97 27 -102 -51 -3 -54 -8 -73
-26 -92 -22 -23 -23 -32 -23 -158 1 -109 4 -136 18 -151 17 -19 167 -118 179
-118 3 0 32 -16 64 -35 40 -24 70 -35 97 -35 48 0 122 21 154 44 23 16 21 16
-36 10 -53 -5 -64 -3 -95 18 -39 26 -87 105 -74 118 13 13 193 71 212 69 9 -1
25 1 35 6 16 7 47 5 87 -6 10 -3 28 22 56 81 65 133 95 232 101 337 8 122 4
130 -43 98 -27 -18 -50 -25 -86 -25 -27 0 -59 -5 -70 -11 -14 -7 -23 -8 -31 0
-13 13 5 57 45 112 l29 40 -33 -3 c-27 -2 -34 1 -36 18 -3 18 15 32 98 80
l100 59 -5 40 c-18 129 -85 243 -191 322 -38 29 -71 53 -74 53 -3 0 -16 -20
-28 -44z m-47 -992 l0 -49 65 -7 c50 -6 68 -4 80 7 9 8 22 15 28 15 13 0 13 1
17 38 3 29 10 36 30 28 12 -4 15 -16 13 -43 -3 -33 -10 -42 -53 -71 -37 -25
-56 -32 -75 -27 -14 4 -43 8 -65 9 -74 4 -106 40 -90 103 17 69 50 67 50 -3z"/>
<path d="M1795 1400 c-3 -5 -2 -10 4 -10 5 0 16 -3 25 -6 11 -4 16 -1 16 10 0
18 -35 22 -45 6z"/>
<path d="M1777 1318 c8 -43 8 -43 33 -18 17 17 19 24 9 36 -6 8 -20 14 -30 14
-15 0 -17 -5 -12 -32z"/>
<path d="M1720 1305 c-7 -9 -11 -18 -8 -20 3 -3 11 1 18 10 7 9 11 18 8 20 -3
3 -11 -1 -18 -10z"/>
<path d="M1340 1205 c0 -27 1 -28 24 -19 22 8 20 21 -4 34 -18 9 -20 8 -20
-15z"/>
<path d="M1250 1200 c0 -16 5 -21 23 -18 12 2 22 10 22 18 0 8 -10 16 -22 18
-18 3 -23 -2 -23 -18z"/>
<path d="M1630 695 c-7 -9 -10 -18 -7 -22 8 -7 37 15 37 28 0 14 -16 11 -30
-6z"/>
<path d="M1550 693 c-8 -3 -26 -10 -40 -15 -22 -8 -23 -10 -8 -19 12 -7 32 -6
59 1 34 9 38 14 29 26 -13 15 -17 16 -40 7z"/>
<path d="M1432 628 c31 -46 63 -61 112 -54 43 7 76 27 76 46 0 8 -20 7 -83 -6
-18 -4 -42 2 -68 15 -50 26 -55 26 -37 -1z"/>
</g>
</svg>
